<svg width="32" height="22" viewBox="0 0 32 22" fill="none" xmlns="http://www.w3.org/2000/svg">
<path d="M26 10L32 6V22L26 18V10ZM24 10V18C24 20.2 22.2 22 20 22H4.00002C1.80002 22 1.52588e-05 20.2 1.52588e-05 18V10C1.52588e-05 7.8 1.80002 6 4.00002 6H14C14 4.9 14.9 4 16 4V2H5.00002C4.40002 2 4.00002 1.6 4.00002 1C4.00002 0.4 4.40002 0 5.00002 0H17C17.6 0 18 0.4 18 1V4C19.1 4 20 4.9 20 6C22.2 6 24 7.8 24 10ZM12 10H4.00002V18H12V10ZM20 11C20 10.4 19.6 10 19 10H15C14.4 10 14 10.4 14 11C14 11.6 14.4 12 15 12H19C19.6 12 20 11.6 20 11Z" fill="#63D1BB"/>
</svg>
