<svg width="25" height="20" viewBox="0 0 25 20" xmlns="http://www.w3.org/2000/svg">
<path d="M24.2248 4.39434C24.0248 3.99434 23.3248 4.09434 22.8248 3.99434H21.7248C21.8248 3.59434 22.0248 3.39434 22.2248 2.99434C22.3248 2.59434 22.5248 2.29434 22.4248 1.69434C22.5248 1.49434 22.6248 1.29433 22.7248 1.09433C22.8248 0.994334 22.9248 0.594337 22.8248 0.394337C22.7248 0.194337 22.5248 0.194336 22.2248 0.194336C22.1248 0.194336 22.0248 0.294334 22.0248 0.294334C21.6248 0.694334 21.2248 1.29434 20.7248 1.69434H20.6248C20.5248 1.69434 20.6248 1.69433 20.5248 1.79433C20.4248 1.89433 20.2248 1.99434 20.1248 1.99434C19.8248 2.19434 19.6248 2.39434 19.2248 2.49434C18.7248 2.29434 18.0248 2.19433 17.3248 2.09433C16.1248 2.19433 15.0248 2.29433 14.3248 2.79433C13.4248 3.09433 12.8248 3.79434 12.2248 4.39434C12.2248 4.69434 11.9248 4.79433 11.8248 5.09433C11.8248 5.09433 11.8248 5.19434 11.7248 5.19434C11.7248 5.39434 11.6248 5.49434 11.6248 5.69434C11.6248 5.79434 11.8248 6.09434 11.6248 6.19434C10.8248 6.09434 10.1248 5.59434 9.52477 5.19434C8.82477 4.79434 8.02477 4.59433 7.42477 4.09433C6.72477 3.79433 6.12477 3.29433 5.62477 2.79433C5.42477 2.49433 5.12477 2.29434 4.92477 1.89434C4.52477 1.69434 4.72477 0.994335 4.22477 0.994335C3.92477 0.994335 3.92477 1.19434 3.82477 1.39434C3.72477 1.59434 3.42477 1.59434 3.42477 1.89434C3.42477 1.89434 3.42477 1.99434 3.32477 1.99434C3.12477 3.09434 2.82477 3.99433 2.82477 5.29433C2.92477 5.69433 3.12477 5.99433 3.42477 6.29433C3.02477 6.39433 2.72477 6.49433 2.52477 6.79433C2.42477 7.89433 2.92477 8.39433 3.22477 9.09433C3.32477 9.49433 3.62477 9.79433 3.82477 10.0943C3.82477 10.2943 4.02477 10.3943 4.12477 10.4943C4.12477 10.5943 4.22477 10.5943 4.22477 10.6943C4.22477 10.7943 4.52477 10.8943 4.32477 10.8943C3.92477 10.9943 3.32477 10.9943 3.02477 11.2943C2.92477 11.5943 2.92477 12.0943 3.02477 12.3943C3.02477 12.5943 3.32477 12.6943 3.32477 12.8943C3.82477 13.2943 4.42477 13.5943 4.92477 13.9943C5.52477 14.1943 6.12477 14.2943 6.82477 14.3943C6.72477 14.6943 6.52477 14.9943 6.22477 15.0943C5.42477 15.4943 4.42477 15.5943 3.52477 15.7943C2.92477 15.7943 2.52477 15.9943 1.92477 15.9943C1.62477 16.0943 1.02477 16.0943 0.824768 16.1943C0.724768 16.2943 0.724768 16.2943 0.624768 16.3943C0.524768 16.7943 0.724769 17.0943 1.02477 17.2943C1.02477 17.5943 1.22477 17.5943 1.42477 17.6943C1.52477 17.8943 1.72477 17.9943 1.82477 18.0943C2.32477 18.5943 3.12477 18.8943 3.72477 19.1943C4.52477 19.3943 5.32477 19.5943 6.22477 19.6943C7.12477 19.7943 8.12477 19.7943 9.02477 19.8943H10.0248C10.5248 19.9943 11.2248 19.9943 11.9248 19.9943C12.0248 19.8943 12.2248 19.8943 12.4248 19.8943C12.9248 19.5943 13.6248 19.4943 14.0248 19.1943C14.6248 18.9943 15.0248 18.5943 15.6248 18.2943C16.5248 17.4943 17.5248 16.9943 18.1248 15.8943C18.3248 15.6943 18.5248 15.4943 18.5248 15.1943C18.8248 14.9943 18.9248 14.6943 19.1248 14.4943C19.5248 14.0943 19.8248 13.5943 20.1248 13.0943C20.4248 12.5943 20.7248 11.9943 21.0248 11.4943C21.0248 11.0943 21.3248 10.9943 21.3248 10.5943C21.5248 10.3943 21.5248 9.89434 21.7248 9.69434C21.7248 9.39434 21.7248 9.29433 21.8248 9.09433C21.8248 7.79433 21.8248 6.69434 21.5248 5.69434C22.1248 5.49434 22.7248 5.39433 23.1248 5.09433C23.9248 5.39433 24.4248 4.99434 24.2248 4.39434ZM20.8248 8.39434C20.6248 9.29434 20.2248 9.79434 19.8248 10.3943C19.9248 10.7943 19.7248 10.8943 19.7248 11.2943C19.5248 11.5943 19.4248 11.9943 19.3248 12.2943C19.1248 12.5943 19.0248 12.8943 18.8248 13.1943C18.4248 13.6943 18.0248 14.2943 17.6248 14.7943C17.2248 15.3943 16.7248 15.7943 16.3248 16.2943C15.9248 16.7943 15.4248 17.1943 14.9248 17.5943C14.4248 17.7943 14.0248 17.9943 13.6248 18.2943C13.4248 18.3943 13.1248 18.4943 12.9248 18.5943C12.7248 18.6943 12.4248 18.6943 12.2248 18.8943C11.1248 18.9943 9.92477 19.0943 8.62477 18.9943C7.62477 18.8943 6.52477 18.7943 5.62477 18.5943C4.72477 18.3943 4.12477 17.8943 3.32477 17.5943C3.52477 17.3943 3.92477 17.3943 4.32477 17.3943C4.32477 17.1943 4.72477 17.3943 4.72477 17.2943C5.02477 17.3943 5.02477 17.1943 5.22477 17.1943C5.82477 16.9943 6.42477 16.8943 6.92477 16.5943C7.22477 16.4943 7.32477 16.1943 7.62477 15.9943C7.62477 15.7943 7.72477 15.6943 7.82477 15.5943C7.82477 15.2943 8.02477 15.1943 7.92477 14.7943C8.02477 14.5943 8.22477 14.4943 8.22477 14.0943C8.12477 13.9943 8.12477 13.7943 7.92477 13.6943C7.92477 13.4943 7.52477 13.5943 7.52477 13.4943C7.22477 13.4943 7.12477 13.4943 6.92477 13.3943C6.72477 13.3943 6.42477 13.4943 6.42477 13.2943C5.62477 13.2943 5.12477 12.8943 4.52477 12.5943C4.92477 12.2943 5.52477 12.1943 5.82477 11.8943C6.32477 11.7943 6.92477 11.7943 6.92477 11.1943C6.92477 10.4943 6.12477 10.4943 5.62477 10.3943C4.82477 9.69434 4.42477 8.69434 3.82477 7.89434C4.02477 7.69434 4.42477 7.69433 4.52477 7.49434C5.02477 7.59434 5.02477 7.19433 5.22477 6.99434C5.22477 6.49434 4.92477 6.39434 4.62477 6.19434C4.32477 5.99434 4.12477 5.69433 3.92477 5.49434C3.92477 4.69433 3.92477 3.79433 4.02477 3.09433C4.12477 3.09433 4.12477 3.09434 4.12477 3.19434C4.32477 3.59434 4.72477 3.99434 4.92477 4.39434C5.42477 4.79434 5.82477 5.29434 6.52477 5.49434C7.02477 5.89434 7.62477 6.09434 8.12477 6.49434C8.72477 6.79434 9.32477 7.09434 9.82477 7.39434C10.5248 7.59434 10.9248 8.09434 11.8248 7.99434C12.0248 7.89434 12.2248 7.79434 12.4248 7.69434C12.7248 7.19434 12.3248 6.59433 12.5248 6.09433C12.8248 5.39433 13.3248 5.09433 13.8248 4.59433C14.1248 4.39433 14.4248 4.29433 14.6248 4.09433C14.9248 3.99433 15.3248 3.89434 15.6248 3.69434C16.0248 3.69434 16.3248 3.59433 16.6248 3.59433H17.9248C18.1248 3.69433 18.4248 3.69434 18.6248 3.69434C18.8248 3.79434 19.0248 3.99433 19.3248 4.09433C20.1248 4.79433 20.6248 5.79433 20.7248 7.09433C20.7248 7.39433 20.8248 7.79434 20.8248 8.39434ZM21.1248 2.79433C21.0248 3.09433 20.9248 3.49433 20.5248 3.59433C20.5248 3.49433 20.4248 3.49434 20.4248 3.39434C20.4248 3.19434 20.6248 3.19433 20.7248 3.09433C20.8248 2.99433 20.9248 2.79433 21.1248 2.79433C21.1248 2.69433 21.2248 2.79433 21.1248 2.79433ZM15.6248 5.79433C15.8248 5.89433 15.9248 6.09434 16.1248 6.19434C16.2248 6.39434 16.4248 6.49433 16.7248 6.59433C16.7248 6.39433 17.0248 6.59434 17.1248 6.39434C17.3248 6.39434 17.3248 6.19433 17.4248 6.09433C17.4248 5.59433 17.3248 5.09433 17.0248 4.79433C16.3248 4.29433 15.3248 4.79433 15.6248 5.79433Z"/>
</svg>
