<svg width="16" height="30" viewBox="0 0 16 30" xmlns="http://www.w3.org/2000/svg">
<path d="M12.3023 6.03687C13.3012 6.03687 14.3001 6.03687 14.9994 5.72439C15.399 4.89108 15.5988 3.74529 15.5988 2.5995C15.399 2.5995 15.4989 2.28701 15.399 2.18285C15.399 1.97452 15.0993 1.97452 15.0993 1.76619C14.7996 1.55787 14.5998 1.34954 14.4 1.14122C13.7008 0.932891 13.0015 0.828728 12.2024 0.620402C11.4032 0.620402 10.3044 0.516237 9.60515 0.724563C7.00792 0.724563 5.60941 1.87036 4.3108 3.22447C4.3108 3.32864 4.31079 3.4328 4.2109 3.4328C3.61154 5.09941 4.11101 7.18267 4.01112 9.26592C4.11101 9.68258 4.11101 10.3076 4.2109 10.7242C3.21197 11.0367 2.01325 11.1409 0.814525 11.245C0.514845 11.5575 0.614738 12.3908 0.614738 13.0158C0.714631 13.6408 0.914419 14.1616 1.01431 14.6824C1.2141 14.8907 1.61367 15.099 1.81346 15.2032C1.91335 15.2032 1.91335 15.3074 1.91335 15.3074C2.41282 15.6199 3.41175 15.3074 4.2109 15.4115C4.11101 17.4948 4.51058 19.4739 4.2109 21.3488C4.2109 21.6613 4.51058 21.7655 4.41069 22.1821C4.41069 23.2238 4.3108 24.2654 4.61048 24.9945C4.3108 25.5153 4.11101 26.0362 4.2109 26.8695C4.31079 26.8695 4.3108 27.0778 4.3108 27.1819C4.2109 27.7028 4.91016 27.3903 4.81026 27.9111C5.01005 28.4319 4.41069 28.1194 4.41069 28.4319V29.3694C4.91016 29.6819 5.90909 29.5777 6.70824 29.5777C7.60728 29.161 8.9059 29.0569 9.50526 28.3277C10.0047 28.5361 10.4043 28.3277 10.704 28.1194C10.704 27.8069 11.0037 27.8069 10.9038 27.3903C10.9038 27.0778 10.704 26.8695 10.8039 26.4528V23.4321C10.6041 21.0363 10.8039 18.3281 10.5042 15.9323C11.4032 15.8282 12.4022 15.8282 13.1014 15.5157C13.501 14.9949 13.501 14.2657 13.6009 13.5366C13.8007 13.3283 13.8007 12.9116 13.8007 12.495C14.0005 12.2867 13.9006 11.7658 13.9006 11.3492C13.8007 10.7242 13.7008 9.99507 13.1014 9.8909C12.2024 9.68258 11.1035 10.5159 10.1046 10.2034C10.1046 9.0576 9.80493 7.80764 10.1046 6.66185C10.9038 6.45352 11.603 6.2452 12.3023 6.03687ZM8.50632 11.0367C8.60622 11.3492 8.806 11.5575 8.9059 11.7658C9.00579 11.7658 9.10568 11.7658 9.10568 11.87C10.3044 11.9742 11.3033 11.7658 12.2024 11.5575C12.2024 12.5991 11.9027 13.3283 11.7029 14.1616C11.0037 14.1616 10.2045 14.4741 9.70504 14.3699C9.40536 14.5782 9.30547 14.8907 9.10568 15.099C9.10568 15.5157 9.20557 15.6199 9.10568 15.9323C8.90589 16.0365 9.00579 16.5573 8.9059 16.7657V18.3281C9.00579 18.6406 8.806 18.6406 8.806 18.8489V22.4946C8.7061 22.8071 8.9059 22.8071 8.9059 23.0154V26.1403C9.00579 26.4528 8.806 26.9736 9.00579 27.0778C8.9059 27.4944 8.60621 27.0778 8.20664 27.1819C7.70717 27.2861 7.3076 27.5986 6.70824 27.5986C6.80813 27.1819 7.00792 26.9736 7.00792 26.4528C7.00792 26.0362 6.60835 26.1403 6.50845 25.932C6.70824 25.307 7.10781 24.7862 7.2077 24.0571C7.40749 23.5362 7.90696 22.7029 7.50739 22.1821C7.00792 22.078 7.00792 22.4946 6.70824 22.5988C6.70824 22.7029 6.70824 22.8071 6.60834 22.8071C6.60834 22.9113 6.60835 23.0154 6.50845 23.0154C6.30867 23.1196 6.50845 23.1196 6.50845 23.0154C6.50845 22.9113 6.50845 22.8071 6.60834 22.8071C6.60834 22.7029 6.60834 22.5988 6.70824 22.5988V22.2863C7.10781 21.6613 7.40749 21.0363 7.50739 20.203C7.70717 19.8905 7.80707 19.4739 7.90696 19.1614C8.10675 18.8489 8.20664 18.2239 8.00685 17.9114C7.50739 17.9114 7.20771 18.2239 7.10781 18.6406C6.80813 18.4323 7.3076 18.2239 7.2077 17.9114C7.3076 17.7031 7.40749 17.2865 7.50739 17.0781C7.70717 16.6615 8.10675 15.724 7.50739 15.4115C7.10781 15.4115 6.90803 15.6199 6.80813 15.9323C6.60835 16.1407 6.40856 16.349 6.30867 16.6615C5.90909 16.5573 6.20877 15.9324 6.10888 15.5157C6.00898 14.9949 6.20877 14.5782 6.10888 14.2657C5.50952 13.4324 4.11101 14.1616 2.91229 13.9533C2.81239 13.6408 2.7125 12.9116 2.81239 12.7033C3.81133 12.5991 5.30973 12.9116 6.00899 12.495C6.00899 12.3908 6.00898 12.2866 6.10888 12.2866C6.20877 11.5575 5.8092 11.245 5.60941 10.8284C5.8092 9.99506 5.60941 8.74511 5.7093 7.70348C5.90909 7.59932 6.00898 7.28683 6.20877 7.0785C6.30866 6.03687 6.90802 5.51606 6.90802 4.47443C6.60834 4.47443 6.30867 4.37027 6.30867 4.68276C6.00898 4.57859 5.90909 5.20357 5.8092 4.89108C5.7093 4.37027 6.00898 4.2661 6.10888 3.84945C6.70824 3.4328 7.3076 3.01615 8.00685 2.5995C9.70504 2.39117 12.602 2.18284 14.1004 2.80782C14.2002 3.4328 13.8007 3.74529 13.9006 4.37027H12.4022C11.3033 4.57859 10.4043 5.09941 9.40536 5.41189C9.20558 5.51606 9.10568 5.72438 8.9059 5.82855C8.9059 6.2452 8.70611 6.45353 8.60621 6.87018C8.30653 8.32846 8.50632 9.57841 8.50632 11.0367Z"/>
</svg>
